<?xml version="1.0" standalone="no"?>
<!DOCTYPE svg PUBLIC "-//W3C//DTD SVG 20010904//EN"
 "http://www.w3.org/TR/2001/REC-SVG-20010904/DTD/svg10.dtd">
<svg version="1.0" xmlns="http://www.w3.org/2000/svg"
 width="1024.000000pt" height="1024.000000pt" viewBox="0 0 1024.000000 1024.000000"
 preserveAspectRatio="xMidYMid meet">

<g transform="translate(0.000000,1024.000000) scale(0.100000,-0.100000)"
fill="#053d57" stroke="none">
<path d="M4335 8089 c-318 -33 -684 -136 -975 -275 -438 -210 -792 -487 -1091
-854 -359 -440 -574 -939 -656 -1520 -27 -193 -24 -607 6 -800 78 -514 278
-985 580 -1365 312 -393 650 -668 1091 -890 894 -449 1996 -526 3029 -213 728
220 1304 555 1803 1050 125 124 308 330 361 408 25 36 21 83 -9 119 -37 45
-74 41 -155 -13 -158 -106 -332 -183 -544 -240 -262 -70 -460 -92 -750 -83
-820 27 -1552 330 -2050 849 -263 273 -431 588 -475 888 -12 82 -9 269 6 382
5 41 3 50 -20 72 -45 46 -99 28 -137 -45 -58 -114 -80 -406 -45 -589 93 -490
512 -1022 1071 -1360 420 -253 929 -417 1430 -460 155 -13 464 -13 596 0 133
14 266 36 388 65 53 13 97 22 99 20 5 -5 -93 -72 -176 -120 -342 -199 -897
-228 -1500 -80 -692 170 -1294 543 -1702 1056 -165 207 -279 412 -355 641 -64
193 -79 301 -72 517 4 155 9 190 36 295 40 152 102 280 196 405 145 192 334
327 545 387 93 26 294 26 370 0 78 -27 144 -61 184 -96 48 -42 86 -123 86
-179 l-1 -46 -19 37 c-59 112 -180 103 -226 -17 -42 -112 8 -281 120 -402 108
-117 229 -171 401 -180 130 -7 222 13 342 72 105 52 228 159 295 258 135 199
201 476 178 744 -26 298 -171 621 -393 879 -238 275 -600 505 -952 604 -279
78 -627 108 -910 79z m553 -159 c120 -13 315 -60 431 -105 177 -67 373 -180
486 -280 l40 -35 -75 39 c-99 53 -342 134 -491 166 -279 59 -711 71 -964 26
-707 -124 -1330 -461 -1804 -976 -106 -116 -305 -379 -377 -501 -31 -52 -58
-93 -60 -91 -7 7 142 283 201 373 303 465 752 857 1295 1129 253 127 511 208
800 250 106 16 389 18 518 5z m290 -356 c502 -86 880 -327 1051 -670 43 -86
81 -209 81 -259 0 -27 -3 -25 -26 25 -52 112 -211 292 -349 395 -147 109 -373
202 -605 249 -191 39 -315 49 -505 43 -386 -13 -831 -131 -1164 -308 -247
-132 -454 -283 -655 -478 -317 -309 -510 -623 -620 -1011 -63 -222 -71 -281
-71 -525 1 -197 4 -236 29 -375 58 -326 206 -679 412 -985 368 -548 910 -1038
1443 -1304 45 -23 81 -44 79 -46 -9 -10 -307 112 -455 186 -354 176 -703 443
-969 740 -230 258 -357 441 -479 694 -182 374 -265 707 -265 1061 0 260 29
450 106 684 76 230 208 481 358 681 247 328 507 556 858 752 225 126 410 202
633 259 109 29 134 32 283 32 160 1 164 2 183 25 21 26 25 81 8 98 -9 9 -2 14
27 22 39 10 143 27 219 35 71 7 303 -4 393 -20z m-208 -394 c277 -24 512 -103
700 -235 104 -73 199 -163 259 -244 61 -82 133 -231 155 -322 18 -74 21 -229
6 -310 -39 -206 -224 -371 -398 -357 -32 3 -70 11 -87 17 l-30 13 37 12 c250
87 329 361 188 655 -210 437 -730 671 -1310 590 -103 -15 -267 -53 -380 -90
-104 -34 -305 -127 -403 -185 -191 -115 -439 -344 -584 -539 -151 -203 -276
-481 -325 -728 -33 -162 -32 -455 0 -607 84 -389 281 -758 610 -1145 196 -230
593 -604 862 -811 313 -241 708 -469 978 -564 67 -23 121 -45 118 -47 -2 -2
-66 10 -142 27 -486 111 -978 356 -1424 709 -184 145 -521 492 -697 716 -320
407 -515 882 -539 1309 -26 450 121 859 452 1256 73 88 254 262 359 347 79 63
282 200 366 246 113 62 313 145 462 191 289 89 517 118 767 96z m-140 -570
c-375 -80 -708 -347 -881 -705 -91 -189 -129 -326 -151 -543 -65 -647 315
-1370 1015 -1933 262 -211 620 -404 982 -527 337 -116 796 -202 1074 -202 84
0 84 -7 -3 -39 -140 -52 -380 -75 -605 -60 -222 16 -526 89 -776 188 -998 393
-1762 1281 -1891 2198 -30 218 -4 509 66 723 133 408 447 746 805 865 120 41
198 53 330 53 l120 1 -85 -19z m-937 -122 c-384 -372 -592 -840 -593 -1338 -1
-449 145 -871 476 -1375 39 -60 86 -130 104 -155 50 -70 -111 97 -193 200
-245 308 -419 667 -494 1020 -24 111 -27 147 -27 330 -1 213 6 275 50 450 77
312 257 595 502 792 59 47 248 167 264 168 4 0 -36 -42 -89 -92z m897 -3594
c140 -99 510 -285 720 -362 213 -79 512 -148 720 -168 114 -11 53 -22 -130
-23 -360 -2 -691 92 -994 281 -114 72 -261 186 -331 259 -62 64 -60 66 15 13z"/>
</g>
</svg>
